<?xml version="1.0" encoding="utf-8"?>
<!-- Generator: Adobe Illustrator 25.2.1, SVG Export Plug-In . SVG Version: 6.00 Build 0)  -->
<svg version="1.1" id="Слой_1" xmlns="http://www.w3.org/2000/svg" xmlns:xlink="http://www.w3.org/1999/xlink" x="0px" y="0px"
	 viewBox="0 0 595.28 841.89" style="enable-background:new 0 0 595.28 841.89;" xml:space="preserve">
<style type="text/css">
	.st0{fill-rule:evenodd;clip-rule:evenodd;fill:#C5C6C6;stroke:#EF7C00;stroke-width:0.5669;stroke-miterlimit:22.9256;}
</style>
<path class="st0" d="M365.13,405.95l1.61,0.41L365.13,405.95L365.13,405.95z M460.37,312.21c7.51,0,7.87-1.07,9.75,1.5
	c-8.59,0.72-0.04,0.81-9.75,0V312.21L460.37,312.21z M453.62,298.71c0-4.72,3.1-8.25,6.75-8.25c1.24,0,4.21,1.7,5.25,2.25
	c7.42-4.97,11.25-0.64,11.25,6.75c0,3.1-0.98,2.99-2.02,4.73c-1.63,2.71-0.64,2.76-1.73,5.02c-2.96-0.07-3.3-0.75-9-0.75
	c-3.77,0-3.36,0.67-6.75,0.75c-1.02-2.13-0.09-2.01-1.65-5.1C454.75,302.19,453.62,301.45,453.62,298.71L453.62,298.71z
	 M450.62,282.96c-5.63-1.5-4.59-11.25,2.25-11.25c4.25,0,5.82,3.75,14.25,3.75c5.11,0,7.64-3,12.75-3c3.17,0,2.25,2.91,2.25,6
	c-2.11-0.49-3.81-1.5-6-1.5c-3.03,0-5.11,3.75-9.75,3.75c-4.12,0-7.58-3.75-9-3.75C453.09,276.96,450.96,278.89,450.62,282.96
	L450.62,282.96z M365.13,405.95c-4.65-1.08-5.07-4.17-9-4.5c-0.21,2.58-1.15,5.22-1.41,7.59c-0.87,8.17,0.29,18.95,1.99,26.32
	c2.05,8.9,6.22,17.3,3.25,26.17c-0.72,2.15-0.84,0.69-0.84,4.41c5.02,3.36,26.7,5.9,27.69-1.45c0.01-0.08,0.02-0.34,0.03-0.41
	c0.01-0.06-0.03-0.27,0.02-0.39c6.37,0.53,9,3.75,9-4.5c-2.23-1.18-2.51-2.02-5.25-2.25v-1.5c2.21-0.51,2.29-0.75,5.25-0.75
	c0.07-3.26,0.58-2.65,0.75-6l0.75-19.5c-0.07-7.18,1.2-12.64,0.8-19.55c-0.25-4.28-0.43-2.4-2.3-5.2l2.56-1.19
	c2.52-2.19,1.94-5.08,1.94-8.56h0.75c0,5.08-0.09,7.55,4.5,9.75c-2.94,4.39-2.76,4.82-2.21,11.21c0.28,3.29,0.47,9.53,1.03,13.22
	l1.93,25.81c3.16,0,3.03-0.32,5.25,0.75c-1.07,2.66,0.31,0.55-2.31,2.19c-1.1,0.69-1.84,0.98-2.94,1.56
	c0.09,4.22,0.91,11.28,2.27,14.97c1.72,4.63-0.02,10.72-0.02,16.52c7.83,5.25,14.9,4.76,24,4.5c5.96-0.17,5.83-1.21,12.75-0.74
	c6.68,0.45,7.3-0.16,9.75-5.26c-2.77-4.14-3.09-0.96-3.04-8.21c0.1-14.27,1.89-29.32,2.31-43.51l0.7-22.55
	c0.12-4.06,0.77-6.23,0.77-11.22c-11.46-2.67-16.59-18.51-8.09-27.59c2.68-2.86,5.28-5.15,9.59-6.16c0-4.91,1.52-4.99,2.13-7.62
	c1.37-5.88-0.33-13.46,0.15-19.32c0.28-3.41,0.72-5.3,0.72-9.81c2.34,2.69,1.51,7.46,1.5,11.25c-0.01,6.29-0.32,15.45,1.75,20
	c1.71,3.76,0.16,4.22,3.4,6.35c6.92,4.53,13.1,9.59,10.71,20.26c-1.8,8.03-6.61,10.08-12.87,13.39c1.07,4.59,0.57,7.4,0.73,12.77
	c0.36,12.15,2.16,26.87,2.3,38.94l0.63,19.62c0.16,3.61,0.26,3.31,3.55,3.97c9.11,1.81,17.17-2.56,22.79-4.06
	c0-9.27,3.21-18.43,3.73-27.01c1.09-17.99,1.63-11.18,7.53-23.22c3.05-6.23,5.8-15.91,6.64-24.11c0.68-6.7-0.29-6.68,2.45-13.29
	c1.6-3.85,3.06-6.61,4.49-11.25c5.98-19.41,12.4-58.1-0.68-79.01c-4.59-7.34-10.34-11.62-19.67-11.83
	c-1.38,5.91-2.59,14.72-6.75,19.5c0.25-2.98,1.48-5.18,2.08-7.67c2.11-8.8,1.63-19.33-0.15-28c-3.54-17.27-8.12-32.68-28.92-32.57
	c-13.88,0.07-20.98,2.24-26.77,14.49c-3.48,7.37-1.73,10.94-1.73,17.76c-1.38-1.99-2.18-6.79-2.25-9.75
	c-2.89,2.12-4.21,8.08-5.74,11.5c-1.63,3.64-3.88,8.72-4.75,12.49c-12.25,0-18.88-0.45-26.04,9.2c-4.98,6.71-8.17,16.03-10.26,25.74
	c-3.4,15.81-1.42,30.49,5.3,44.05c2.08,4.2,5.21,7.29,6.25,11.75c-18.19,0-43.91-15.01-43.49-27.69c0.11-3.15,2.25-11.01,3.26-14.04
	c1.59-4.81,3.54-8.08,6.27-11.73c3.93-5.27,9.33-9.18,15.68-11.32c2.51-0.85,4.57-1.21,6.29-2.71c-10.14,0-21.9,7.03-26.26,12.74
	c-6.18,8.08-10.32,16.09-12.42,26.57c-3.5,17.47-0.23,34.47,7.42,48.93C359.33,400.79,362.33,401.76,365.13,405.95L365.13,405.95z
	 M158.91,449.44h-6c-10.09,0-19.5-12.17-19.5-22.5c0-11.05,2.04-19.86,12.76-25.48c14.22-7.46,31.48,5.34,31.48,20.98
	c0,8.72-0.48,12.16-5.65,19.09C169.8,444.48,163.31,449.44,158.91,449.44L158.91,449.44z M110.91,419.45
	c0,15.04,1.28,25.14,12.44,36.3c28.75,28.75,76.8,6.55,76.8-28.8c0-14.95-3-24.58-12.92-34.32c-19.69-19.33-57.59-15.65-71.59,10.56
	C113.67,406.87,110.91,414.19,110.91,419.45L110.91,419.45z M230.9,426.19c0-8.32,0.82-13.74,6.54-19.71
	c15.52-16.2,37.7-2.45,37.7,15.21v5.25c0,10.45-9.4,22.5-19.5,22.5c-8.05,0-13.7-0.67-19.09-7.9
	C233.48,437.43,230.9,432.9,230.9,426.19L230.9,426.19z M208.4,421.69c0,14.73,2.89,24.2,13.31,34.69
	c20.15,20.29,57.73,15.34,71.46-11.42c6.09-11.86,6.22-29.09,0-41.29c-2.58-5.07-5.28-7.92-9.19-11.8
	c-15.42-15.33-45.9-15.26-62.28,0.37C215.39,398.25,208.4,409.69,208.4,421.69L208.4,421.69z M35.17,408.95
	c0,3.91,7.94,2.25,18.75,2.25v-12h19.5l-29.09,41.4c-1.68,2.52-3.12,4.47-4.97,7.02c-2.8,3.86-3.84,5.24-4.18,7.48v12.34h67.49
	v-27.75c0-3.75-6.39-2.25-16.5-2.25c-3.46,0-2.25,4.22-2.25,12.75H62.17l14.55-20.7c2.54-3.85,24.45-33.6,24.45-35.54v-12H35.17
	V408.95L35.17,408.95z M472.37,522.93v5.25h11.25v67.49c0,3.33-3.5,2.25-11.25,2.25v6.75h30.75v-6.75c-13.47,0-10.8,0.92-10.52-5.18
	c0.5-11.06,0.65-51.15-0.73-57.06c1.58,1.15,0.72,0.68,1.36,1.64l4.48,6.76c11.32,16.97,29.87,40.7,40.49,57
	c2.88,4.43,1.51,3.59,11.41,3.59v-76.49h10.5v-7.5h-28.5c-2.99,0-2.25,2.12-2.25,7.5h11.25l-1.38,59.88l-46.58-65.91
	c-1.04-1.06-0.03-1.47-2.28-1.47C479.77,520.68,472.37,519.07,472.37,522.93L472.37,522.93z M166.4,597.17h-21.75v-32.25
	c16.58,0,36.8-3.63,37.38,15.81c0.12,3.95-1.9,9.19-3.91,11.66C175.67,595.41,171.61,597.17,166.4,597.17L166.4,597.17z
	 M163.4,557.43h-18.75v-28.5c19.57,0,33.75-3.54,33.75,15C178.4,552.33,172.04,557.43,163.4,557.43L163.4,557.43z M125.16,522.93
	v5.25h10.5v69.74h-10.5v6.75h44.24c21.47,0,28.55-29.42,13.86-40.85c-2.03-1.58-2.52-2.38-5.61-2.64v-1.5
	c10.97-2.93,14.59-25.79,1.21-34.95c-8.5-5.82-38.9-4.04-51.45-4.04C125.68,520.68,125.16,521.2,125.16,522.93L125.16,522.93z
	 M316.39,561.93h-21v-33c13.07,0,36-3.24,36,13.5v4.5C331.38,554.69,324.15,561.93,316.39,561.93L316.39,561.93z M275.89,522.93
	v5.25h11.25v67.49c0,3.33-3.5,2.25-11.25,2.25v6.75h30.75v-6.75c-14.71,0-11.25,4.78-11.25-26.25c0-3.4,3.85-2.25,12-2.25
	c8.1,0,10.59,7.04,16.01,16.99c11.16,20.49,9.7,18.26,23.74,18.26v-6.75c-9.02,0-8.11-2.69-14.21-12.79l-10.54-17.2
	c23.18-5.4,22.16-35.64,8.03-43.28c-10.39-5.62-38.2-3.97-52.28-3.97C276.41,520.68,275.89,521.2,275.89,522.93L275.89,522.93z
	 M201.65,522.93v5.25h11.25v69.74h-11.25v6.75h62.24v-18h-8.25v10.5H221.9v-30.75h31.5v-7.5h-31.5v-30h31.5v9.75h8.25
	c0-10.59,1.61-18-2.25-18H203.9C202.17,520.68,201.65,521.2,201.65,522.93L201.65,522.93z M358.38,522.93v6h10.5v68.99h-10.5v6.75
	h60.74v-21h-8.25v13.5h-33v-68.24c12.73,0,11.25,1.28,11.25-6c0-1.73-0.52-2.25-2.25-2.25h-26.25
	C358.9,520.68,358.38,521.2,358.38,522.93L358.38,522.93z M429.62,522.93v5.25h11.25v69.74h-11.25v6.75h30.75v-6.75h-10.5v-69.74
	h10.5c0-10.05,4.13-7.5-28.5-7.5C430.14,520.68,429.62,521.2,429.62,522.93L429.62,522.93z M470.12,301.71
	c2.69,0,3.84-2.51,4.5-3.75c-1.54-2.91-0.24-3-5.25-3C465.07,294.96,466.25,301.71,470.12,301.71L470.12,301.71z M456.62,298.71
	l1.54,1.46c6.27,3.57,11.04-5.21,1.46-5.21C457.24,294.96,457.06,296.8,456.62,298.71z"/>
</svg>
